<svg width="72" height="72" viewBox="0 0 72 72" fill="none" xmlns="http://www.w3.org/2000/svg">
<path d="M0 36C0 16.1177 16.1177 0 36 0H65.4545C69.0695 0 72 2.9305 72 6.54545V36C72 55.8823 55.8823 72 36 72V72C16.1177 72 0 55.8823 0 36V36Z" fill="#0093CB"/>
<path d="M48 21H24C22.35 21 21 22.35 21 24V51L27 45H48C49.65 45 51 43.65 51 42V24C51 22.35 49.65 21 48 21ZM37.5 39H34.5V36H37.5V39ZM40.2 31.5C39.75 32.1 39.15 32.4 38.55 32.7C38.1 33 37.95 33.15 37.8 33.45C37.5 33.75 37.5 34.05 37.5 34.5H34.5C34.5 33.75 34.65 33.3 34.95 32.85C35.25 32.55 35.85 32.1 36.6 31.65C37.05 31.5 37.35 31.2 37.5 30.9C37.65 30.6 37.8 30.15 37.8 29.85C37.8 29.4 37.65 29.1 37.35 28.8C37.05 28.5 36.6 28.35 36.15 28.35C35.7 28.35 35.4 28.5 35.1 28.65C34.8 28.8 34.65 29.1 34.65 29.55H31.65C31.8 28.5 32.25 27.6 33 27C33.75 26.4 34.8 26.25 36.15 26.25C37.5 26.25 38.7 26.55 39.45 27.15C40.2 27.75 40.65 28.65 40.65 29.7C40.8 30.3 40.65 30.9 40.2 31.5Z" fill="#F8F8F8"/>
</svg>
