<svg width="26" height="19" viewBox="0 0 26 19" fill="none" xmlns="http://www.w3.org/2000/svg">
<path d="M4.32569 16.619C3.73091 16.619 3.22156 16.4639 2.79764 16.1536C2.37372 15.8434 2.16212 15.4709 2.16284 15.0362V6.33104C2.16284 5.89578 2.3748 5.52304 2.79872 5.21282C3.22264 4.9026 3.73163 4.74775 4.32569 4.74828H8.65139V3.16552C8.65139 2.73026 8.86335 2.35753 9.28727 2.0473C9.71119 1.73708 10.2202 1.58224 10.8142 1.58277H15.1399C15.7347 1.58277 16.2441 1.73788 16.668 2.0481C17.0919 2.35832 17.3035 2.73079 17.3028 3.16552V4.74828H21.6285C22.2233 4.74828 22.7326 4.90339 23.1565 5.21361C23.5805 5.52383 23.7921 5.89631 23.7913 6.33104V15.0362C23.7913 15.4715 23.5794 15.8442 23.1555 16.1544C22.7315 16.4647 22.2226 16.6195 21.6285 16.619H4.32569ZM10.8142 4.74828H15.1399V3.16552H10.8142V4.74828Z" fill="#5A5C69"/>
</svg>
