<svg width="27" height="19" viewBox="0 0 27 19" fill="none" xmlns="http://www.w3.org/2000/svg">
<path d="M5.24861 16.619C4.65481 16.619 4.14631 16.4639 3.7231 16.1536C3.29988 15.8434 3.08864 15.4709 3.08936 15.0362V6.33104C3.08936 5.89578 3.30096 5.52304 3.72418 5.21282C4.14739 4.9026 4.65553 4.74775 5.24861 4.74828H9.5671V3.16552C9.5671 2.73026 9.77871 2.35753 10.2019 2.0473C10.6251 1.73708 11.1333 1.58224 11.7264 1.58277H16.0448C16.6386 1.58277 17.1471 1.73788 17.5704 2.0481C17.9936 2.35832 18.2048 2.73079 18.2041 3.16552V4.74828H22.5226C23.1164 4.74828 23.6249 4.90339 24.0481 5.21361C24.4713 5.52383 24.6826 5.89631 24.6818 6.33104V15.0362C24.6818 15.4715 24.4702 15.8442 24.047 16.1544C23.6238 16.4647 23.1157 16.6195 22.5226 16.619H5.24861ZM11.7264 4.74828H16.0448V3.16552H11.7264V4.74828Z" fill="#5A5C69"/>
</svg>
