<svg width="26" height="19" viewBox="0 0 26 19" fill="none" xmlns="http://www.w3.org/2000/svg">
<path d="M12.9771 9.49656C13.5719 9.49656 14.0812 9.34145 14.5051 9.03123C14.9291 8.72101 15.1407 8.34853 15.1399 7.9138C15.1399 7.47854 14.928 7.1058 14.5041 6.79558C14.0801 6.48536 13.5711 6.33051 12.9771 6.33104C12.3823 6.33104 11.8729 6.48615 11.449 6.79637C11.0251 7.10659 10.8135 7.47907 10.8142 7.9138C10.8142 8.34906 11.0262 8.7218 11.4501 9.03202C11.874 9.34224 12.383 9.49708 12.9771 9.49656ZM12.9771 17.4104C10.0753 15.6034 7.90808 13.9251 6.47556 12.3756C5.04303 10.8261 4.3264 9.39157 4.32568 8.07207C4.32568 6.09363 5.19551 4.51746 6.93516 3.34358C8.67481 2.1697 10.6888 1.58276 12.9771 1.58276C15.2661 1.58276 17.2804 2.1697 19.0201 3.34358C20.7597 4.51746 21.6292 6.09363 21.6285 8.07207C21.6285 9.39104 20.9119 10.8255 19.4786 12.3756C18.0454 13.9256 15.8782 15.6039 12.9771 17.4104Z" fill="#5A5C69"/>
</svg>
