<svg width="27" height="19" viewBox="0 0 27 19" fill="none" xmlns="http://www.w3.org/2000/svg">
<path d="M13.7748 9.49656C14.3686 9.49656 14.8771 9.34145 15.3003 9.03123C15.7235 8.72101 15.9348 8.34853 15.9341 7.9138C15.9341 7.47854 15.7225 7.1058 15.2992 6.79558C14.876 6.48536 14.3679 6.33051 13.7748 6.33104C13.181 6.33104 12.6725 6.48615 12.2493 6.79637C11.8261 7.10659 11.6148 7.47907 11.6156 7.9138C11.6156 8.34906 11.8272 8.7218 12.2504 9.03202C12.6736 9.34224 13.1817 9.49708 13.7748 9.49656ZM13.7748 17.4104C10.8778 15.6034 8.71425 13.9251 7.28411 12.3756C5.85397 10.8261 5.13854 9.39157 5.13782 8.07207C5.13782 6.09363 6.0062 4.51746 7.74295 3.34358C9.47971 2.1697 11.4903 1.58276 13.7748 1.58276C16.06 1.58276 18.071 2.1697 19.8077 3.34358C21.5445 4.51746 22.4125 6.09363 22.4118 8.07207C22.4118 9.39104 21.6964 10.8255 20.2655 12.3756C18.8346 13.9256 16.6711 15.6039 13.7748 17.4104Z" fill="#5A5C69"/>
</svg>
