<svg width="27" height="19" viewBox="0 0 27 19" fill="none" xmlns="http://www.w3.org/2000/svg">
<path d="M13.8907 9.49631C14.4844 9.49631 14.9929 9.3412 15.4162 9.03098C15.8394 8.72076 16.0506 8.34829 16.0499 7.91355C16.0499 7.4783 15.8383 7.10556 15.4151 6.79534C14.9919 6.48511 14.4837 6.33027 13.8907 6.3308C13.2969 6.3308 12.7884 6.48591 12.3651 6.79613C11.9419 7.10635 11.7307 7.47882 11.7314 7.91355C11.7314 8.34881 11.943 8.72155 12.3662 9.03177C12.7894 9.34199 13.2976 9.49684 13.8907 9.49631ZM13.8907 17.4101C10.9937 15.6031 8.8301 13.9249 7.39995 12.3754C5.96981 10.8258 5.25438 9.39132 5.25366 8.07183C5.25366 6.09338 6.12204 4.51722 7.85879 3.34334C9.59555 2.16946 11.6062 1.58252 13.8907 1.58252C16.1759 1.58252 18.1868 2.16946 19.9236 3.34334C21.6603 4.51722 22.5284 6.09338 22.5276 8.07183C22.5276 9.3908 21.8122 10.8253 20.3814 12.3754C18.9505 13.9254 16.7869 15.6037 13.8907 17.4101Z" fill="#5A5C69"/>
</svg>
