<svg width="113" height="30" viewBox="0 0 113 30" fill="none" xmlns="http://www.w3.org/2000/svg">
<path d="M111.139 7.74967C110.209 8.17259 109.206 8.45051 108.167 8.58342C109.23 7.94301 110.052 6.92801 110.438 5.70759C109.435 6.31176 108.324 6.73467 107.152 6.97634C106.197 5.93717 104.856 5.33301 103.333 5.33301C100.494 5.33301 98.1738 7.65301 98.1738 10.5168C98.1738 10.9276 98.2221 11.3263 98.3067 11.7009C94.005 11.4834 90.1746 9.41717 87.625 6.28759C87.1779 7.04884 86.9242 7.94301 86.9242 8.88551C86.9242 10.6859 87.8304 12.2809 89.2321 13.1872C88.3742 13.1872 87.5767 12.9455 86.8758 12.583V12.6193C86.8758 15.1326 88.6642 17.2351 91.0325 17.7063C90.2721 17.9144 89.4739 17.9434 88.7004 17.7909C89.0286 18.821 89.6714 19.7223 90.5383 20.3682C91.4053 21.0141 92.4528 21.3721 93.5338 21.3918C91.7015 22.8423 89.4303 23.6263 87.0933 23.6151C86.6825 23.6151 86.2717 23.5909 85.8608 23.5426C88.1567 25.0168 90.8875 25.8747 93.8117 25.8747C103.333 25.8747 108.565 17.9722 108.565 11.1209C108.565 10.8913 108.565 10.6738 108.553 10.4443C109.568 9.71926 110.438 8.80092 111.139 7.74967Z" fill="black"/>
<path d="M56.5 2.96484C49.8541 2.96484 44.4166 8.39026 44.4166 15.0723C44.4166 21.114 48.8391 26.1286 54.615 27.0348V18.5765H51.5458V15.0723H54.615V12.4019C54.615 9.36901 56.4154 7.70151 59.1825 7.70151C60.4995 7.70151 61.877 7.93109 61.877 7.93109V10.9157H60.3545C58.8562 10.9157 58.385 11.8461 58.385 12.8007V15.0723H61.7441L61.2004 18.5765H58.385V27.0348C61.2323 26.5852 63.8251 25.1323 65.6953 22.9387C67.5655 20.745 68.5898 17.955 68.5833 15.0723C68.5833 8.39026 63.1458 2.96484 56.5 2.96484Z" fill="black"/>
<path d="M22.9583 4.125C23.5993 4.125 24.214 4.37961 24.6672 4.83283C25.1204 5.28604 25.375 5.90073 25.375 6.54167V23.4583C25.375 24.0993 25.1204 24.714 24.6672 25.1672C24.214 25.6204 23.5993 25.875 22.9583 25.875H6.04167C5.40073 25.875 4.78604 25.6204 4.33283 25.1672C3.87961 24.714 3.625 24.0993 3.625 23.4583V6.54167C3.625 5.90073 3.87961 5.28604 4.33283 4.83283C4.78604 4.37961 5.40073 4.125 6.04167 4.125H22.9583ZM22.3542 22.8542V16.45C22.3542 15.4053 21.9391 14.4033 21.2004 13.6646C20.4617 12.9259 19.4597 12.5108 18.415 12.5108C17.3879 12.5108 16.1917 13.1392 15.6117 14.0817V12.7404H12.2404V22.8542H15.6117V16.8971C15.6117 15.9667 16.3608 15.2054 17.2913 15.2054C17.7399 15.2054 18.1702 15.3836 18.4874 15.7009C18.8047 16.0181 18.9829 16.4484 18.9829 16.8971V22.8542H22.3542ZM8.31333 10.8433C8.85172 10.8433 9.36806 10.6295 9.74876 10.2488C10.1295 9.86806 10.3433 9.35172 10.3433 8.81333C10.3433 7.68958 9.43708 6.77125 8.31333 6.77125C7.77174 6.77125 7.25233 6.9864 6.86936 7.36936C6.4864 7.75233 6.27125 8.27174 6.27125 8.81333C6.27125 9.93708 7.18958 10.8433 8.31333 10.8433ZM9.99292 22.8542V12.7404H6.64583V22.8542H9.99292Z" fill="black"/>
</svg>
