<svg width="114" height="29" viewBox="0 0 114 29" fill="none" xmlns="http://www.w3.org/2000/svg">
<path d="M111.639 7.24967C110.709 7.67259 109.706 7.95051 108.667 8.08342C109.73 7.44301 110.552 6.42801 110.938 5.20759C109.935 5.81176 108.824 6.23467 107.652 6.47634C106.697 5.43717 105.356 4.83301 103.833 4.83301C100.994 4.83301 98.6738 7.15301 98.6738 10.0168C98.6738 10.4276 98.7221 10.8263 98.8067 11.2009C94.505 10.9834 90.6746 8.91717 88.125 5.78759C87.6779 6.54884 87.4242 7.44301 87.4242 8.38551C87.4242 10.1859 88.3304 11.7809 89.7321 12.6872C88.8742 12.6872 88.0767 12.4455 87.3758 12.083V12.1193C87.3758 14.6326 89.1642 16.7351 91.5325 17.2063C90.7721 17.4144 89.9739 17.4434 89.2004 17.2909C89.5286 18.321 90.1714 19.2223 91.0383 19.8682C91.9053 20.5141 92.9528 20.8721 94.0338 20.8918C92.2015 22.3423 89.9303 23.1263 87.5933 23.1151C87.1825 23.1151 86.7717 23.0909 86.3608 23.0426C88.6567 24.5168 91.3875 25.3747 94.3117 25.3747C103.833 25.3747 109.065 17.4722 109.065 10.6209C109.065 10.3913 109.065 10.1738 109.053 9.94426C110.068 9.21926 110.938 8.30092 111.639 7.24967Z" fill="black"/>
<path d="M57 2.46484C50.3541 2.46484 44.9166 7.89026 44.9166 14.5723C44.9166 20.614 49.3391 25.6286 55.115 26.5348V18.0765H52.0458V14.5723H55.115V11.9019C55.115 8.86901 56.9154 7.20151 59.6825 7.20151C60.9995 7.20151 62.377 7.43109 62.377 7.43109V10.4157H60.8545C59.3562 10.4157 58.885 11.3461 58.885 12.3007V14.5723H62.2441L61.7004 18.0765H58.885V26.5348C61.7323 26.0852 64.3251 24.6323 66.1953 22.4387C68.0655 20.245 69.0898 17.455 69.0833 14.5723C69.0833 7.89026 63.6458 2.46484 57 2.46484Z" fill="black"/>
<path d="M23.4583 3.625C24.0993 3.625 24.714 3.87961 25.1672 4.33283C25.6204 4.78604 25.875 5.40073 25.875 6.04167V22.9583C25.875 23.5993 25.6204 24.214 25.1672 24.6672C24.714 25.1204 24.0993 25.375 23.4583 25.375H6.54167C5.90073 25.375 5.28604 25.1204 4.83283 24.6672C4.37961 24.214 4.125 23.5993 4.125 22.9583V6.04167C4.125 5.40073 4.37961 4.78604 4.83283 4.33283C5.28604 3.87961 5.90073 3.625 6.54167 3.625H23.4583ZM22.8542 22.3542V15.95C22.8542 14.9053 22.4391 13.9033 21.7004 13.1646C20.9617 12.4259 19.9597 12.0108 18.915 12.0108C17.8879 12.0108 16.6917 12.6392 16.1117 13.5817V12.2404H12.7404V22.3542H16.1117V16.3971C16.1117 15.4667 16.8608 14.7054 17.7913 14.7054C18.2399 14.7054 18.6702 14.8836 18.9874 15.2009C19.3047 15.5181 19.4829 15.9484 19.4829 16.3971V22.3542H22.8542ZM8.81333 10.3433C9.35172 10.3433 9.86806 10.1295 10.2488 9.74876C10.6295 9.36806 10.8433 8.85172 10.8433 8.31333C10.8433 7.18958 9.93708 6.27125 8.81333 6.27125C8.27174 6.27125 7.75233 6.4864 7.36936 6.86936C6.9864 7.25233 6.77125 7.77174 6.77125 8.31333C6.77125 9.43708 7.68958 10.3433 8.81333 10.3433ZM10.4929 22.3542V12.2404H7.14583V22.3542H10.4929Z" fill="black"/>
</svg>
