<svg width="26" height="25" viewBox="0 0 26 25" fill="none" xmlns="http://www.w3.org/2000/svg">
<path d="M3.64296 25C2.89587 25 2.25609 24.755 1.72362 24.265C1.19115 23.775 0.925366 23.1867 0.926272 22.5V5C0.926272 4.3125 1.19251 3.72375 1.72498 3.23375C2.25745 2.74375 2.89678 2.49917 3.64296 2.5H5.0013V1.25C5.0013 0.895838 5.13171 0.598754 5.39251 0.358754C5.65331 0.118754 5.97569 -0.000829008 6.35965 4.32526e-06C6.74451 4.32526e-06 7.06735 0.120004 7.32815 0.360004C7.58895 0.600004 7.7189 0.896671 7.71799 1.25V2.5H18.5847V1.25C18.5847 0.895838 18.7151 0.598754 18.9759 0.358754C19.2368 0.118754 19.5591 -0.000829008 19.9431 4.32526e-06C20.328 4.32526e-06 20.6508 0.120004 20.9116 0.360004C21.1724 0.600004 21.3023 0.896671 21.3014 1.25V2.5H22.6598C23.4069 2.5 24.0466 2.745 24.5791 3.235C25.1116 3.725 25.3774 4.31334 25.3765 5V22.5C25.3765 23.1875 25.1102 23.7763 24.5778 24.2663C24.0453 24.7563 23.406 25.0008 22.6598 25H3.64296ZM3.64296 22.5H22.6598V10H3.64296V22.5ZM13.1514 15C12.7665 15 12.4437 14.88 12.1829 14.64C11.9221 14.4 11.7921 14.1033 11.793 13.75C11.793 13.3958 11.9234 13.0988 12.1842 12.8588C12.445 12.6188 12.7674 12.4992 13.1514 12.5C13.5362 12.5 13.8591 12.62 14.1199 12.86C14.3807 13.1 14.5106 13.3967 14.5097 13.75C14.5097 14.1042 14.3793 14.4013 14.1185 14.6413C13.8577 14.8813 13.5353 15.0008 13.1514 15ZM7.71799 15C7.33313 15 7.0103 14.88 6.74949 14.64C6.48869 14.4 6.35874 14.1033 6.35965 13.75C6.35965 13.3958 6.49005 13.0988 6.75085 12.8588C7.01165 12.6188 7.33403 12.4992 7.71799 12.5C8.10286 12.5 8.42569 12.62 8.68649 12.86C8.94729 13.1 9.07724 13.3967 9.07634 13.75C9.07634 14.1042 8.94594 14.4013 8.68513 14.6413C8.42433 14.8813 8.10195 15.0008 7.71799 15ZM18.5847 15C18.1999 15 17.877 14.88 17.6162 14.64C17.3554 14.4 17.2255 14.1033 17.2264 13.75C17.2264 13.3958 17.3568 13.0988 17.6176 12.8588C17.8784 12.6188 18.2008 12.4992 18.5847 12.5C18.9696 12.5 19.2924 12.62 19.5532 12.86C19.814 13.1 19.944 13.3967 19.9431 13.75C19.9431 14.1042 19.8127 14.4013 19.5519 14.6413C19.2911 14.8813 18.9687 15.0008 18.5847 15ZM13.1514 20C12.7665 20 12.4437 19.88 12.1829 19.64C11.9221 19.4 11.7921 19.1033 11.793 18.75C11.793 18.3958 11.9234 18.0988 12.1842 17.8588C12.445 17.6188 12.7674 17.4992 13.1514 17.5C13.5362 17.5 13.8591 17.62 14.1199 17.86C14.3807 18.1 14.5106 18.3967 14.5097 18.75C14.5097 19.1042 14.3793 19.4013 14.1185 19.6413C13.8577 19.8813 13.5353 20.0008 13.1514 20ZM7.71799 20C7.33313 20 7.0103 19.88 6.74949 19.64C6.48869 19.4 6.35874 19.1033 6.35965 18.75C6.35965 18.3958 6.49005 18.0988 6.75085 17.8588C7.01165 17.6188 7.33403 17.4992 7.71799 17.5C8.10286 17.5 8.42569 17.62 8.68649 17.86C8.94729 18.1 9.07724 18.3967 9.07634 18.75C9.07634 19.1042 8.94594 19.4013 8.68513 19.6413C8.42433 19.8813 8.10195 20.0008 7.71799 20ZM18.5847 20C18.1999 20 17.877 19.88 17.6162 19.64C17.3554 19.4 17.2255 19.1033 17.2264 18.75C17.2264 18.3958 17.3568 18.0988 17.6176 17.8588C17.8784 17.6188 18.2008 17.4992 18.5847 17.5C18.9696 17.5 19.2924 17.62 19.5532 17.86C19.814 18.1 19.944 18.3967 19.9431 18.75C19.9431 19.1042 19.8127 19.4013 19.5519 19.6413C19.2911 19.8813 18.9687 20.0008 18.5847 20Z" fill="#424242"/>
</svg>
