<svg width="27" height="19" viewBox="0 0 27 19" fill="none" xmlns="http://www.w3.org/2000/svg">
<path d="M5.80881 17.0937C5.16355 17.0937 4.61097 16.9386 4.15107 16.6284C3.69118 16.3181 3.46162 15.9457 3.4624 15.5109V4.43163C3.4624 3.99637 3.69235 3.62363 4.15225 3.31341C4.61214 3.00319 5.16433 2.84835 5.80881 2.84887H6.98201V2.0575C6.98201 1.83327 7.09463 1.64519 7.31989 1.49324C7.54514 1.3413 7.82358 1.26559 8.15521 1.26612C8.48761 1.26612 8.76645 1.34209 8.9917 1.49403C9.21695 1.64598 9.32919 1.8338 9.32841 2.0575V2.84887H18.714V2.0575C18.714 1.83327 18.8266 1.64519 19.0519 1.49324C19.2772 1.3413 19.5556 1.26559 19.8872 1.26612C20.2196 1.26612 20.4985 1.34209 20.7237 1.49403C20.949 1.64598 21.0612 1.8338 21.0604 2.0575V2.84887H22.2336C22.8789 2.84887 23.4315 3.00398 23.8914 3.31421C24.3512 3.62443 24.5808 3.9969 24.58 4.43163V15.5109C24.58 15.9462 24.3501 16.3189 23.8902 16.6292C23.4303 16.9394 22.8781 17.0942 22.2336 17.0937H5.80881ZM5.80881 15.5109H22.2336V7.59715H5.80881V15.5109ZM14.0212 10.7627C13.6888 10.7627 13.41 10.6867 13.1847 10.5347C12.9595 10.3828 12.8472 10.195 12.848 9.97129C12.848 9.74706 12.9606 9.55898 13.1859 9.40703C13.4111 9.25509 13.6896 9.17938 14.0212 9.17991C14.3536 9.17991 14.6324 9.25588 14.8577 9.40783C15.083 9.55977 15.1952 9.74759 15.1944 9.97129C15.1944 10.1955 15.0818 10.3836 14.8565 10.5355C14.6313 10.6875 14.3528 10.7632 14.0212 10.7627ZM9.32841 10.7627C8.996 10.7627 8.71717 10.6867 8.49192 10.5347C8.26666 10.3828 8.15443 10.195 8.15521 9.97129C8.15521 9.74706 8.26784 9.55898 8.49309 9.40703C8.71834 9.25509 8.99678 9.17938 9.32841 9.17991C9.66082 9.17991 9.93965 9.25588 10.1649 9.40783C10.3902 9.55977 10.5024 9.74759 10.5016 9.97129C10.5016 10.1955 10.389 10.3836 10.1637 10.5355C9.93847 10.6875 9.66003 10.7632 9.32841 10.7627ZM18.714 10.7627C18.3816 10.7627 18.1028 10.6867 17.8775 10.5347C17.6523 10.3828 17.54 10.195 17.5408 9.97129C17.5408 9.74706 17.6534 9.55898 17.8787 9.40703C18.104 9.25509 18.3824 9.17938 18.714 9.17991C19.0464 9.17991 19.3253 9.25588 19.5505 9.40783C19.7758 9.55977 19.888 9.74759 19.8872 9.97129C19.8872 10.1955 19.7746 10.3836 19.5493 10.5355C19.3241 10.6875 19.0456 10.7632 18.714 10.7627ZM14.0212 13.9282C13.6888 13.9282 13.41 13.8522 13.1847 13.7003C12.9595 13.5483 12.8472 13.3605 12.848 13.1368C12.848 12.9126 12.9606 12.7245 13.1859 12.5726C13.4111 12.4206 13.6896 12.3449 14.0212 12.3454C14.3536 12.3454 14.6324 12.4214 14.8577 12.5733C15.083 12.7253 15.1952 12.9131 15.1944 13.1368C15.1944 13.361 15.0818 13.5491 14.8565 13.7011C14.6313 13.853 14.3528 13.9287 14.0212 13.9282ZM9.32841 13.9282C8.996 13.9282 8.71717 13.8522 8.49192 13.7003C8.26666 13.5483 8.15443 13.3605 8.15521 13.1368C8.15521 12.9126 8.26784 12.7245 8.49309 12.5726C8.71834 12.4206 8.99678 12.3449 9.32841 12.3454C9.66082 12.3454 9.93965 12.4214 10.1649 12.5733C10.3902 12.7253 10.5024 12.9131 10.5016 13.1368C10.5016 13.361 10.389 13.5491 10.1637 13.7011C9.93847 13.853 9.66003 13.9287 9.32841 13.9282ZM18.714 13.9282C18.3816 13.9282 18.1028 13.8522 17.8775 13.7003C17.6523 13.5483 17.54 13.3605 17.5408 13.1368C17.5408 12.9126 17.6534 12.7245 17.8787 12.5726C18.104 12.4206 18.3824 12.3449 18.714 12.3454C19.0464 12.3454 19.3253 12.4214 19.5505 12.5733C19.7758 12.7253 19.888 12.9131 19.8872 13.1368C19.8872 13.361 19.7746 13.5491 19.5493 13.7011C19.3241 13.853 19.0456 13.9287 18.714 13.9282Z" fill="#5A5C69"/>
</svg>
