<svg width="26" height="19" viewBox="0 0 26 19" fill="none" xmlns="http://www.w3.org/2000/svg">
<path d="M4.88206 17.0937C4.23572 17.0937 3.68222 16.9386 3.22156 16.6284C2.7609 16.3181 2.53096 15.9457 2.53174 15.5109V4.43163C2.53174 3.99637 2.76207 3.62363 3.22273 3.31341C3.68339 3.00319 4.2365 2.84835 4.88206 2.84887H6.05721V2.0575C6.05721 1.83327 6.17003 1.64519 6.39566 1.49324C6.62129 1.3413 6.90019 1.26559 7.23237 1.26612C7.56533 1.26612 7.84463 1.34209 8.07026 1.49403C8.29589 1.64598 8.40831 1.8338 8.40753 2.0575V2.84887H17.8088V2.0575C17.8088 1.83327 17.9216 1.64519 18.1472 1.49324C18.3729 1.3413 18.6518 1.26559 18.9839 1.26612C19.3169 1.26612 19.5962 1.34209 19.8218 1.49403C20.0475 1.64598 20.1599 1.8338 20.1591 2.0575V2.84887H21.3343C21.9806 2.84887 22.5341 3.00398 22.9948 3.31421C23.4554 3.62443 23.6854 3.9969 23.6846 4.43163V15.5109C23.6846 15.9462 23.4543 16.3189 22.9936 16.6292C22.5329 16.9394 21.9798 17.0942 21.3343 17.0937H4.88206ZM4.88206 15.5109H21.3343V7.59715H4.88206V15.5109ZM13.1082 10.7627C12.7752 10.7627 12.4959 10.6867 12.2703 10.5347C12.0446 10.3828 11.9322 10.195 11.933 9.97129C11.933 9.74706 12.0458 9.55898 12.2714 9.40703C12.4971 9.25509 12.776 9.17938 13.1082 9.17991C13.4411 9.17991 13.7204 9.25588 13.946 9.40783C14.1717 9.55977 14.2841 9.74759 14.2833 9.97129C14.2833 10.1955 14.1705 10.3836 13.9449 10.5355C13.7192 10.6875 13.4403 10.7632 13.1082 10.7627ZM8.40753 10.7627C8.07457 10.7627 7.79527 10.6867 7.56964 10.5347C7.34401 10.3828 7.23159 10.195 7.23237 9.97129C7.23237 9.74706 7.34519 9.55898 7.57082 9.40703C7.79645 9.25509 8.07535 9.17938 8.40753 9.17991C8.74049 9.17991 9.01979 9.25588 9.24542 9.40783C9.47105 9.55977 9.58347 9.74759 9.58269 9.97129C9.58269 10.1955 9.46987 10.3836 9.24424 10.5355C9.01861 10.6875 8.73971 10.7632 8.40753 10.7627ZM17.8088 10.7627C17.4758 10.7627 17.1965 10.6867 16.9709 10.5347C16.7453 10.3828 16.6329 10.195 16.6336 9.97129C16.6336 9.74706 16.7464 9.55898 16.9721 9.40703C17.1977 9.25509 17.4766 9.17938 17.8088 9.17991C18.1418 9.17991 18.421 9.25588 18.6467 9.40783C18.8723 9.55977 18.9847 9.74759 18.9839 9.97129C18.9839 10.1955 18.8711 10.3836 18.6455 10.5355C18.4199 10.6875 18.141 10.7632 17.8088 10.7627ZM13.1082 13.9282C12.7752 13.9282 12.4959 13.8522 12.2703 13.7003C12.0446 13.5483 11.9322 13.3605 11.933 13.1368C11.933 12.9126 12.0458 12.7245 12.2714 12.5726C12.4971 12.4206 12.776 12.3449 13.1082 12.3454C13.4411 12.3454 13.7204 12.4214 13.946 12.5733C14.1717 12.7253 14.2841 12.9131 14.2833 13.1368C14.2833 13.361 14.1705 13.5491 13.9449 13.7011C13.7192 13.853 13.4403 13.9287 13.1082 13.9282ZM8.40753 13.9282C8.07457 13.9282 7.79527 13.8522 7.56964 13.7003C7.34401 13.5483 7.23159 13.3605 7.23237 13.1368C7.23237 12.9126 7.34519 12.7245 7.57082 12.5726C7.79645 12.4206 8.07535 12.3449 8.40753 12.3454C8.74049 12.3454 9.01979 12.4214 9.24542 12.5733C9.47105 12.7253 9.58347 12.9131 9.58269 13.1368C9.58269 13.361 9.46987 13.5491 9.24424 13.7011C9.01861 13.853 8.73971 13.9287 8.40753 13.9282ZM17.8088 13.9282C17.4758 13.9282 17.1965 13.8522 16.9709 13.7003C16.7453 13.5483 16.6329 13.3605 16.6336 13.1368C16.6336 12.9126 16.7464 12.7245 16.9721 12.5726C17.1977 12.4206 17.4766 12.3449 17.8088 12.3454C18.1418 12.3454 18.421 12.4214 18.6467 12.5733C18.8723 12.7253 18.9847 12.9131 18.9839 13.1368C18.9839 13.361 18.8711 13.5491 18.6455 13.7011C18.4199 13.853 18.141 13.9287 17.8088 13.9282Z" fill="#5A5C69"/>
</svg>
